# xmcd CD database file
#
# Track frame offsets:
#	150
#	13847
#	24640
#	37155
#	50680
#	61314
#	72410
#	83509
#	95066
#	107728
#	120878
#	131699
#	141212
#	152464
#	163939
#	172837
#	182208
#	191624
#
# Disc length: 2687 seconds
#
# Revision: 0
# Processed by: cddbd v1.5.2PL0 Copyright (c) Steve Scherf et al.
# Submitted via: CDex 1.70beta2
#
DISCID=f70a7d12
DTITLE=Webb Pierce - King Of The Honky-Tonk
DYEAR=1994
DGENRE=Country
TTITLE0=Wondering
TTITLE1=I Just Can't Be True
TTITLE2=Back Street Affair
TTITLE3=Broken Engagement
TTITLE4=It's Been So Long
TTITLE5=There Stands The Glass
TTITLE6=I'm Walking The Dog
TTITLE7=Slowly
TTITLE8=Even Tho'
TTITLE9=Sparkling Brown Eyes
TTITLE10=More And More
TTITLE11=In The Jailhouse Now
TTITLE12=I Don't Care
TTITLE13=Why Baby Why
TTITLE14=I'm Tired
TTITLE15=Honky Tonk Song
TTITLE16=Tupelo County Jail
TTITLE17=I Ain't Never
EXTD=YEAR: 1994
EXTT0=
EXTT1=
EXTT2=
EXTT3=
EXTT4=
EXTT5=
EXTT6=
EXTT7=
EXTT8=
EXTT9=
EXTT10=
EXTT11=
EXTT12=
EXTT13=
EXTT14=
EXTT15=
EXTT16=
EXTT17=
PLAYORDER=
